{
    "asset" : {
        "generator" : "Khronos glTF Blender I/O v3.2.40",
        "version" : "2.0"
    },
    "scene" : 0,
    "scenes" : [
        {
            "name" : "Scene",
            "nodes" : [
                0,
                1,
                2
            ]
        }
    ],
    "nodes" : [
        {
            "mesh" : 0,
            "name" : "Cylinder",
            "rotation" : [
                0.7071068286895752,
                0,
                0,
                0.7071068286895752
            ],
            "scale" : [
                0.05000000074505806,
                1,
                0.05000000074505806
            ],
            "translation" : [
                1,
                1,
                0.12484991550445557
            ]
        },
        {
            "mesh" : 1,
            "name" : "Cube",
            "scale" : [
                1,
                1,
                3
            ]
        },
        {
            "mesh" : 2,
            "name" : "Cube.001",
            "scale" : [
                1,
                1,
                3
            ]
        }
    ],
    "meshes" : [
        {
            "name" : "Cylinder.003",
            "primitives" : [
                {
                    "attributes" : {
                        "POSITION" : 0,
                        "NORMAL" : 1,
                        "TEXCOORD_0" : 2
                    },
                    "indices" : 3
                }
            ]
        },
        {
            "name" : "Cube.003",
            "primitives" : [
                {
                    "attributes" : {
                        "POSITION" : 4,
                        "NORMAL" : 5,
                        "TEXCOORD_0" : 6
                    },
                    "indices" : 7
                }
            ]
        },
        {
            "name" : "Cube.004",
            "primitives" : [
                {
                    "attributes" : {
                        "POSITION" : 8,
                        "NORMAL" : 9,
                        "TEXCOORD_0" : 10
                    },
                    "indices" : 11
                }
            ]
        }
    ],
    "accessors" : [
        {
            "bufferView" : 0,
            "componentType" : 5126,
            "count" : 3570,
            "max" : [
                1,
                2.9309616088867188,
                40.02773666381836
            ],
            "min" : [
                -1,
                -3.1498961448669434,
                -1.0000008344650269
            ],
            "type" : "VEC3"
        },
        {
            "bufferView" : 1,
            "componentType" : 5126,
            "count" : 3570,
            "type" : "VEC3"
        },
        {
            "bufferView" : 2,
            "componentType" : 5126,
            "count" : 3570,
            "type" : "VEC2"
        },
        {
            "bufferView" : 3,
            "componentType" : 5123,
            "count" : 8616,
            "type" : "SCALAR"
        },
        {
            "bufferView" : 4,
            "componentType" : 5126,
            "count" : 19287,
            "max" : [
                1,
                1.0049999952316284,
                1.0049999952316284
            ],
            "min" : [
                -1.0044069290161133,
                -1.0023621320724487,
                -1.0049999952316284
            ],
            "type" : "VEC3"
        },
        {
            "bufferView" : 5,
            "componentType" : 5126,
            "count" : 19287,
            "type" : "VEC3"
        },
        {
            "bufferView" : 6,
            "componentType" : 5126,
            "count" : 19287,
            "type" : "VEC2"
        },
        {
            "bufferView" : 7,
            "componentType" : 5123,
            "count" : 31152,
            "type" : "SCALAR"
        },
        {
            "bufferView" : 8,
            "componentType" : 5126,
            "count" : 128,
            "max" : [
                1,
                1.017677664756775,
                1.024999976158142
            ],
            "min" : [
                -1.0181567668914795,
                -1.0097683668136597,
                -1.024999976158142
            ],
            "type" : "VEC3"
        },
        {
            "bufferView" : 9,
            "componentType" : 5126,
            "count" : 128,
            "type" : "VEC3"
        },
        {
            "bufferView" : 10,
            "componentType" : 5126,
            "count" : 128,
            "type" : "VEC2"
        },
        {
            "bufferView" : 11,
            "componentType" : 5123,
            "count" : 192,
            "type" : "SCALAR"
        }
    ],
    "bufferViews" : [
        {
            "buffer" : 0,
            "byteLength" : 42840,
            "byteOffset" : 0
        },
        {
            "buffer" : 0,
            "byteLength" : 42840,
            "byteOffset" : 42840
        },
        {
            "buffer" : 0,
            "byteLength" : 28560,
            "byteOffset" : 85680
        },
        {
            "buffer" : 0,
            "byteLength" : 17232,
            "byteOffset" : 114240
        },
        {
            "buffer" : 0,
            "byteLength" : 231444,
            "byteOffset" : 131472
        },
        {
            "buffer" : 0,
            "byteLength" : 231444,
            "byteOffset" : 362916
        },
        {
            "buffer" : 0,
            "byteLength" : 154296,
            "byteOffset" : 594360
        },
        {
            "buffer" : 0,
            "byteLength" : 62304,
            "byteOffset" : 748656
        },
        {
            "buffer" : 0,
            "byteLength" : 1536,
            "byteOffset" : 810960
        },
        {
            "buffer" : 0,
            "byteLength" : 1536,
            "byteOffset" : 812496
        },
        {
            "buffer" : 0,
            "byteLength" : 1024,
            "byteOffset" : 814032
        },
        {
            "buffer" : 0,
            "byteLength" : 384,
            "byteOffset" : 815056
        }
    ],
    "buffers" : [
        {
            "byteLength" : 815440,
            "uri" : "data:application/octet-stream;base64,"
        }
    ]
}
