{
    "asset" : {
        "generator" : "Khronos glTF Blender I/O v3.2.40",
        "version" : "2.0"
    },
    "scene" : 0,
    "scenes" : [
        {
            "name" : "Scene",
            "nodes" : [
                0,
                1,
                2,
                3,
                4
            ]
        }
    ],
    "nodes" : [
        {
            "mesh" : 0,
            "name" : "Cube"
        },
        {
            "mesh" : 1,
            "name" : "Cube.001",
            "rotation" : [
                0.48646411299705505,
                0,
                0,
                0.8737005591392517
            ],
            "scale" : [
                2.602142333984375,
                3.0632362365722656,
                0.40563061833381653
            ],
            "translation" : [
                -2.1078011989593506,
                12.245922088623047,
                -4.429061412811279
            ]
        },
        {
            "mesh" : 2,
            "name" : "Cube.002",
            "rotation" : [
                0.1530458778142929,
                -0.6903455853462219,
                0.15304601192474365,
                0.6903455257415771
            ],
            "scale" : [
                3.6307013034820557,
                0.7303712964057922,
                3.588705062866211
            ],
            "translation" : [
                -5.877980709075928,
                11.995712280273438,
                4.209464073181152
            ]
        },
        {
            "mesh" : 3,
            "name" : "Cube.003",
            "rotation" : [
                -0.011178403161466122,
                0.17337863147258759,
                -0.5334889888763428,
                0.8277707099914551
            ],
            "scale" : [
                3.000000238418579,
                0.45293179154396057,
                3
            ],
            "translation" : [
                6.666600227355957,
                12.377710342407227,
                -1.7085644006729126
            ]
        },
        {
            "mesh" : 4,
            "name" : "Cube.004",
            "rotation" : [
                0.21331290900707245,
                -0.42448219656944275,
                -0.3172098994255066,
                0.8207864165306091
            ],
            "scale" : [
                3.5,
                0.5,
                3.5
            ],
            "translation" : [
                4.671823501586914,
                11.9515962600708,
                5.398216724395752
            ]
        }
    ],
    "materials" : [
        {
            "doubleSided" : true,
            "name" : "Material.001",
            "pbrMetallicRoughness" : {
                "baseColorFactor" : [
                    0.11280229687690735,
                    0.029823655262589455,
                    0.008916747756302357,
                    1
                ],
                "metallicFactor" : 0,
                "roughnessFactor" : 0.5
            }
        },
        {
            "doubleSided" : true,
            "name" : "leaf",
            "pbrMetallicRoughness" : {
                "baseColorFactor" : [
                    0.0012288172729313374,
                    0.09655523300170898,
                    0,
                    1
                ],
                "metallicFactor" : 0,
                "roughnessFactor" : 0.5
            }
        }
    ],
    "meshes" : [
        {
            "name" : "Cube.003",
            "primitives" : [
                {
                    "attributes" : {
                        "POSITION" : 0,
                        "NORMAL" : 1,
                        "TEXCOORD_0" : 2
                    },
                    "indices" : 3,
                    "material" : 0
                }
            ]
        },
        {
            "name" : "Cube.004",
            "primitives" : [
                {
                    "attributes" : {
                        "POSITION" : 4,
                        "NORMAL" : 5,
                        "TEXCOORD_0" : 6
                    },
                    "indices" : 7,
                    "material" : 1
                }
            ]
        },
        {
            "name" : "Cube.005",
            "primitives" : [
                {
                    "attributes" : {
                        "POSITION" : 8,
                        "NORMAL" : 9,
                        "TEXCOORD_0" : 10
                    },
                    "indices" : 7,
                    "material" : 1
                }
            ]
        },
        {
            "name" : "Cube.006",
            "primitives" : [
                {
                    "attributes" : {
                        "POSITION" : 11,
                        "NORMAL" : 12,
                        "TEXCOORD_0" : 13
                    },
                    "indices" : 7,
                    "material" : 1
                }
            ]
        },
        {
            "name" : "Cube.007",
            "primitives" : [
                {
                    "attributes" : {
                        "POSITION" : 14,
                        "NORMAL" : 15,
                        "TEXCOORD_0" : 16
                    },
                    "indices" : 7,
                    "material" : 1
                }
            ]
        }
    ],
    "accessors" : [
        {
            "bufferView" : 0,
            "componentType" : 5126,
            "count" : 367,
            "max" : [
                6.982364177703857,
                12.831083297729492,
                7.083975315093994
            ],
            "min" : [
                -6.965879440307617,
                -1,
                -5.074082374572754
            ],
            "type" : "VEC3"
        },
        {
            "bufferView" : 1,
            "componentType" : 5126,
            "count" : 367,
            "type" : "VEC3"
        },
        {
            "bufferView" : 2,
            "componentType" : 5126,
            "count" : 367,
            "type" : "VEC2"
        },
        {
            "bufferView" : 3,
            "componentType" : 5123,
            "count" : 576,
            "type" : "SCALAR"
        },
        {
            "bufferView" : 4,
            "componentType" : 5126,
            "count" : 24,
            "max" : [
                1,
                1,
                1
            ],
            "min" : [
                -1,
                -1,
                -1
            ],
            "type" : "VEC3"
        },
        {
            "bufferView" : 5,
            "componentType" : 5126,
            "count" : 24,
            "type" : "VEC3"
        },
        {
            "bufferView" : 6,
            "componentType" : 5126,
            "count" : 24,
            "type" : "VEC2"
        },
        {
            "bufferView" : 7,
            "componentType" : 5123,
            "count" : 36,
            "type" : "SCALAR"
        },
        {
            "bufferView" : 8,
            "componentType" : 5126,
            "count" : 24,
            "max" : [
                1,
                1,
                1
            ],
            "min" : [
                -1,
                -1,
                -1
            ],
            "type" : "VEC3"
        },
        {
            "bufferView" : 9,
            "componentType" : 5126,
            "count" : 24,
            "type" : "VEC3"
        },
        {
            "bufferView" : 10,
            "componentType" : 5126,
            "count" : 24,
            "type" : "VEC2"
        },
        {
            "bufferView" : 11,
            "componentType" : 5126,
            "count" : 24,
            "max" : [
                1,
                1,
                1
            ],
            "min" : [
                -1,
                -1,
                -1
            ],
            "type" : "VEC3"
        },
        {
            "bufferView" : 12,
            "componentType" : 5126,
            "count" : 24,
            "type" : "VEC3"
        },
        {
            "bufferView" : 13,
            "componentType" : 5126,
            "count" : 24,
            "type" : "VEC2"
        },
        {
            "bufferView" : 14,
            "componentType" : 5126,
            "count" : 24,
            "max" : [
                1,
                1,
                1
            ],
            "min" : [
                -1,
                -1,
                -1
            ],
            "type" : "VEC3"
        },
        {
            "bufferView" : 15,
            "componentType" : 5126,
            "count" : 24,
            "type" : "VEC3"
        },
        {
            "bufferView" : 16,
            "componentType" : 5126,
            "count" : 24,
            "type" : "VEC2"
        }
    ],
    "bufferViews" : [
        {
            "buffer" : 0,
            "byteLength" : 4404,
            "byteOffset" : 0
        },
        {
            "buffer" : 0,
            "byteLength" : 4404,
            "byteOffset" : 4404
        },
        {
            "buffer" : 0,
            "byteLength" : 2936,
            "byteOffset" : 8808
        },
        {
            "buffer" : 0,
            "byteLength" : 1152,
            "byteOffset" : 11744
        },
        {
            "buffer" : 0,
            "byteLength" : 288,
            "byteOffset" : 12896
        },
        {
            "buffer" : 0,
            "byteLength" : 288,
            "byteOffset" : 13184
        },
        {
            "buffer" : 0,
            "byteLength" : 192,
            "byteOffset" : 13472
        },
        {
            "buffer" : 0,
            "byteLength" : 72,
            "byteOffset" : 13664
        },
        {
            "buffer" : 0,
            "byteLength" : 288,
            "byteOffset" : 13736
        },
        {
            "buffer" : 0,
            "byteLength" : 288,
            "byteOffset" : 14024
        },
        {
            "buffer" : 0,
            "byteLength" : 192,
            "byteOffset" : 14312
        },
        {
            "buffer" : 0,
            "byteLength" : 288,
            "byteOffset" : 14504
        },
        {
            "buffer" : 0,
            "byteLength" : 288,
            "byteOffset" : 14792
        },
        {
            "buffer" : 0,
            "byteLength" : 192,
            "byteOffset" : 15080
        },
        {
            "buffer" : 0,
            "byteLength" : 288,
            "byteOffset" : 15272
        },
        {
            "buffer" : 0,
            "byteLength" : 288,
            "byteOffset" : 15560
        },
        {
            "buffer" : 0,
            "byteLength" : 192,
            "byteOffset" : 15848
        }
    ],
    "buffers" : [
        {
            "byteLength" : 16040,
            "uri" : "data:application/octet-stream;base64,"
        }
    ]
}
